<svg width="1046" height="672" viewBox="0 0 1046 672" fill="none" xmlns="http://www.w3.org/2000/svg">
<path d="M1042.64 0.000976562C943.92 175.246 565.52 40.881 285.85 140.197C6.16998 239.51 0.689941 560.776 0.689941 560.776C165.21 227.826 516.18 373.871 801.34 280.394C1086.51 186.934 1042.64 0 1042.64 0V0.000976562Z" fill="#D48ECC"/>
<path d="M231.02 426.531C395.53 344.746 708.13 391.486 850.69 298.018C850.69 298.018 827.56 390.075 743.82 480.022C546.07 422.768 412.14 473.979 331.55 531.977C296.88 556.902 269.37 584.723 248.13 610.629C187.39 599.288 111.19 594.764 0.699952 671.884C0.689952 671.88 66.49 508.315 231.02 426.53V426.531ZM311.19 622.333C314.41 622.714 317.63 623.02 320.8 623.203C386.31 626.944 474.48 669.26 645.55 561.405C663.28 550.246 679.49 538.397 694.43 526.22C499.86 481.143 379.14 552.345 311.19 622.333Z" fill="#030002"/>
</svg>
